# xmcd CD database file
#
# Track frame offsets:
#	182
#	16095
#	46882
#	60307
#	75962
#	89387
#	102150
#	112950
#	124080
#	140342
#	155815
#	173632
#	188420
#
# Disc length: 2601 seconds
#
# Revision: 0
# Processed by: cddbd v1.4PL0 Copyright (c) Steve Scherf et al.
# Submitted via: CDex 1.50beta10
#
DISCID=900a270d
DTITLE=Memphis Slim - Slim's Boogie
DYEAR=1995
DGENRE=Blues
TTITLE0=Born In Memphis Tenessee
TTITLE1=Going Back To Tenessee
TTITLE2=What Is The Blues
TTITLE3=Headed For Nashville
TTITLE4=Didn't We Babe
TTITLE5=Rockin' The House
TTITLE6=The Animal In Me
TTITLE7=Slim's Boogie
TTITLE8=Misery
TTITLE9=Three-And-One-Boogie
TTITLE10=Wish Me Well
TTITLE11=Prodigal Son
TTITLE12=All By Myself
EXTD=YEAR: 1995
EXTT0=
EXTT1=
EXTT2=
EXTT3=
EXTT4=
EXTT5=
EXTT6=
EXTT7=
EXTT8=
EXTT9=
EXTT10=
EXTT11=
EXTT12=
PLAYORDER=
